<?xml version="1.0" encoding="UTF-8"?>
<svg class="logo" width="210mm" height="297mm" version="1.1" viewBox="0 0 210 297" xmlns="http://www.w3.org/2000/svg">
 <g fill="none" stroke="currentColor" stroke-linecap="round" stroke-linejoin="round" stroke-width="1.323">
  <path d="m49.657 104.94c0-22.071 18.036-40.107 40.107-40.107h64.667l-4.608 17.197h-60.059c-12.841 0-22.908 10.069-22.908 22.91 0 12.841 10.067 22.91 22.908 22.91h19.54v0.12505h9.7655c22.071 0 40.107 18.037 40.107 40.108v17.197c0-21.862-17.698-39.763-39.483-40.099-0.20716-5e-3 -0.41508-8e-3 -0.62373-8e-3h-23.786v-0.12505h-5.5187c-22.071 0-40.107-18.037-40.107-40.108zm4.7449 86.053h64.667c9.7845 0 17.957-5.8471 21.294-14.311 1.0422 2.6438 1.6139 5.5423 1.6139 8.5984 0 12.841-10.067 22.91-22.908 22.91h-60.059z" color="#000000" color-rendering="auto" dominant-baseline="auto" image-rendering="auto" shape-rendering="auto" solid-color="#000000" stop-color="#000000" style="font-feature-settings:normal;font-variant-alternates:normal;font-variant-caps:normal;font-variant-east-asian:normal;font-variant-ligatures:normal;font-variant-numeric:normal;font-variant-position:normal;font-variation-settings:normal;inline-size:0;isolation:auto;mix-blend-mode:normal;shape-margin:0;shape-padding:0;text-decoration-color:#000000;text-decoration-line:none;text-decoration-style:solid;text-indent:0;text-orientation:mixed;text-transform:none;white-space:normal"/>
  <path d="m49.657 104.94c0 21.862 17.698 39.763 39.483 40.099 0.20715 5e-3 0.41509 8e-3 0.62374 8e-3h19.54v0.12506h9.7655c22.071 0 40.107 18.037 40.107 40.108 0 22.071-18.036 40.107-40.107 40.107h-64.667l4.608-17.197h60.059c12.841 0 22.908-10.069 22.908-22.91 0-12.841-10.067-22.91-22.908-22.91h-23.786v-0.12506h-5.5187c-22.071 0-40.107-18.037-40.107-40.108zm17.199 0c0-12.841 10.067-22.91 22.908-22.91h60.059l4.608 17.197h-64.667c-9.7845 0-17.957 5.8471-21.294 14.311-1.0422-2.6438-1.6139-5.5423-1.6139-8.5984z" color="#000000" color-rendering="auto" dominant-baseline="auto" image-rendering="auto" shape-rendering="auto" solid-color="#000000" stop-color="#000000" style="font-feature-settings:normal;font-variant-alternates:normal;font-variant-caps:normal;font-variant-east-asian:normal;font-variant-ligatures:normal;font-variant-numeric:normal;font-variant-position:normal;font-variation-settings:normal;inline-size:0;isolation:auto;mix-blend-mode:normal;shape-margin:0;shape-padding:0;text-decoration-color:#000000;text-decoration-line:none;text-decoration-style:solid;text-indent:0;text-orientation:mixed;text-transform:none;white-space:normal"/>
  <path d="m149.82 82.029 4.608-17.197 4.608 17.197-4.608 17.197z" opacity=".84035"/>
  <path d="m59.01 208.19-4.608 17.197-4.608-17.197 4.608-17.197z" opacity=".84035"/>
 </g>
</svg>
